<svg xmlns="http://www.w3.org/2000/svg" width="133.308" height="44.56" viewBox="0 0 133.308 44.56">
  <g id="Download_on_the_App_Store_Badge_US-UK_RGB_blk_092917" transform="translate(0 -0.001)">
    <g id="Group_1158" data-name="Group 1158" transform="translate(0 0.001)">
      <g id="Group_1156" data-name="Group 1156">
        <path id="Path_112" data-name="Path 112" d="M122.692,0H10.622C10.213,0,9.81,0,9.4,0c-.341,0-.679.009-1.024.014a14.721,14.721,0,0,0-2.232.2,7.425,7.425,0,0,0-2.118.7,7.172,7.172,0,0,0-1.8,1.313A6.972,6.972,0,0,0,.913,4.031a7.354,7.354,0,0,0-.7,2.12,14.474,14.474,0,0,0-.2,2.23C.007,8.723.005,9.065,0,9.407V35.157c.005.346.007.681.017,1.027a14.474,14.474,0,0,0,.2,2.23,7.339,7.339,0,0,0,.7,2.121,6.915,6.915,0,0,0,1.313,1.8,6.99,6.99,0,0,0,1.8,1.313,7.465,7.465,0,0,0,2.118.7,14.99,14.99,0,0,0,2.232.2c.344.008.683.012,1.024.012.407,0,.811,0,1.22,0h112.07c.4,0,.807,0,1.208,0,.339,0,.688,0,1.027-.012a14.793,14.793,0,0,0,2.228-.2,7.58,7.58,0,0,0,2.126-.7,6.994,6.994,0,0,0,1.8-1.313,7.124,7.124,0,0,0,1.316-1.8,7.357,7.357,0,0,0,.69-2.121,15.044,15.044,0,0,0,.207-2.23c0-.346,0-.681,0-1.027.009-.4.009-.807.009-1.219V10.623c0-.408,0-.813-.009-1.216,0-.342,0-.684,0-1.026a15.044,15.044,0,0,0-.207-2.23,7.372,7.372,0,0,0-.69-2.12A7.2,7.2,0,0,0,129.28.912a7.539,7.539,0,0,0-2.126-.7,14.531,14.531,0,0,0-2.228-.2C124.587.011,124.239,0,123.9,0c-.4,0-.807,0-1.208,0Z" transform="translate(0 0)" fill="#a6a6a6"/>
        <path id="Path_113" data-name="Path 113" d="M9.308,43.486c-.339,0-.671,0-1.007-.012a14.134,14.134,0,0,1-2.082-.182,6.555,6.555,0,0,1-1.846-.61,6.022,6.022,0,0,1-1.556-1.133A5.927,5.927,0,0,1,1.68,39.994a6.374,6.374,0,0,1-.6-1.846,13.829,13.829,0,0,1-.185-2.089c-.007-.235-.016-1.017-.016-1.017V9.307s.01-.77.016-1a13.781,13.781,0,0,1,.184-2.086,6.412,6.412,0,0,1,.605-1.852A5.986,5.986,0,0,1,2.81,2.816,6.2,6.2,0,0,1,4.372,1.677a6.487,6.487,0,0,1,1.842-.606A14.021,14.021,0,0,1,8.3.889L9.309.875H123.795l1.017.014a13.8,13.8,0,0,1,2.07.181,6.616,6.616,0,0,1,1.861.61,6.232,6.232,0,0,1,2.69,2.7,6.42,6.42,0,0,1,.6,1.837,14.474,14.474,0,0,1,.194,2.1c0,.315,0,.654,0,.992.009.418.009.815.009,1.216V33.838c0,.4,0,.8-.009,1.2,0,.362,0,.694,0,1.036a14.18,14.18,0,0,1-.19,2.065,6.393,6.393,0,0,1-.6,1.86,6.1,6.1,0,0,1-1.131,1.544,6.03,6.03,0,0,1-1.559,1.139,6.53,6.53,0,0,1-1.858.612,13.972,13.972,0,0,1-2.082.182c-.326.008-.668.012-1,.012l-1.208,0Z" transform="translate(0.1 0.1)"/>
      </g>
      <g id="_Group_" data-name="&lt;Group&gt;" transform="translate(11.108 9.715)">
        <g id="_Group_2" data-name="&lt;Group&gt;">
          <g id="_Group_3" data-name="&lt;Group&gt;">
            <path id="_Path_" data-name="&lt;Path&gt;" d="M26.456,21.022A5.513,5.513,0,0,1,29.081,16.4a5.643,5.643,0,0,0-4.446-2.4c-1.871-.2-3.684,1.119-4.638,1.119-.972,0-2.439-1.1-4.02-1.067a5.921,5.921,0,0,0-4.983,3.039c-2.155,3.73-.547,9.212,1.516,12.227,1.033,1.476,2.239,3.126,3.818,3.067,1.545-.064,2.122-.985,3.988-.985,1.848,0,2.389.985,4,.948,1.658-.027,2.7-1.483,3.7-2.973a12.212,12.212,0,0,0,1.692-3.445A5.327,5.327,0,0,1,26.456,21.022Z" transform="translate(-9.972 -8.121)" fill="#fff"/>
            <path id="_Path_2" data-name="&lt;Path&gt;" d="M22.407,12.609A5.428,5.428,0,0,0,23.649,8.72a5.523,5.523,0,0,0-3.573,1.849A5.165,5.165,0,0,0,18.8,14.314,4.566,4.566,0,0,0,22.407,12.609Z" transform="translate(-8.966 -8.72)" fill="#fff"/>
          </g>
        </g>
        <g id="Group_1157" data-name="Group 1157" transform="translate(27.244 10.194)">
          <path id="Path_114" data-name="Path 114" d="M43.2,28.173H37.927l-1.266,3.739H34.427l4.995-13.834h2.32l4.995,13.834H44.465Zm-4.727-1.725h4.18l-2.06-6.068h-.058Z" transform="translate(-34.427 -17.847)" fill="#fff"/>
          <path id="Path_115" data-name="Path 115" d="M56.132,26.5c0,3.134-1.678,5.148-4.209,5.148A3.419,3.419,0,0,1,48.75,29.88H48.7v5h-2.07V21.453h2v1.678h.038a3.578,3.578,0,0,1,3.211-1.783C54.445,21.348,56.132,23.371,56.132,26.5ZM54,26.5c0-2.042-1.055-3.384-2.665-3.384-1.582,0-2.646,1.371-2.646,3.384,0,2.032,1.064,3.393,2.646,3.393C52.949,29.89,54,28.557,54,26.5Z" transform="translate(-33.036 -17.475)" fill="#fff"/>
          <path id="Path_116" data-name="Path 116" d="M66.1,26.5c0,3.134-1.678,5.148-4.209,5.148a3.419,3.419,0,0,1-3.173-1.765h-.048v5H56.6V21.453h2v1.678h.038a3.578,3.578,0,0,1,3.212-1.783C64.41,21.348,66.1,23.371,66.1,26.5Zm-2.128,0c0-2.042-1.055-3.384-2.665-3.384-1.582,0-2.646,1.371-2.646,3.384,0,2.032,1.064,3.393,2.646,3.393,1.61,0,2.665-1.333,2.665-3.393Z" transform="translate(-31.9 -17.475)" fill="#fff"/>
          <path id="Path_117" data-name="Path 117" d="M71.927,28.081c.153,1.372,1.486,2.273,3.307,2.273,1.745,0,3-.9,3-2.138,0-1.074-.757-1.717-2.55-2.157l-1.793-.432c-2.54-.614-3.72-1.8-3.72-3.729,0-2.387,2.08-4.026,5.034-4.026,2.923,0,4.927,1.639,4.995,4.026h-2.09c-.125-1.381-1.266-2.214-2.934-2.214s-2.809.843-2.809,2.07c0,.978.729,1.554,2.512,1.994l1.524.374c2.838.671,4.018,1.811,4.018,3.835,0,2.588-2.062,4.209-5.341,4.209-3.068,0-5.139-1.583-5.273-4.085Z" transform="translate(-30.393 -17.871)" fill="#fff"/>
          <path id="Path_118" data-name="Path 118" d="M83.709,19.3v2.387h1.918v1.639H83.709v5.56c0,.864.384,1.266,1.227,1.266a6.469,6.469,0,0,0,.681-.048v1.63a5.685,5.685,0,0,1-1.15.1c-2.042,0-2.838-.767-2.838-2.723V23.326H80.163V21.687h1.466V19.3Z" transform="translate(-29.213 -17.708)" fill="#fff"/>
          <path id="Path_119" data-name="Path 119" d="M86.065,26.5c0-3.173,1.869-5.168,4.784-5.168s4.785,1.994,4.785,5.168-1.851,5.168-4.785,5.168S86.065,29.681,86.065,26.5Zm7.459,0c0-2.177-1-3.462-2.675-3.462s-2.674,1.295-2.674,3.462c0,2.186,1,3.461,2.674,3.461s2.675-1.275,2.675-3.461Z" transform="translate(-28.54 -17.477)" fill="#fff"/>
          <path id="Path_120" data-name="Path 120" d="M96.186,21.453h1.975V23.17h.048a2.406,2.406,0,0,1,2.426-1.822,3.193,3.193,0,0,1,.709.077v1.936a2.894,2.894,0,0,0-.93-.125,2.086,2.086,0,0,0-2.157,2.32v5.982h-2.07Z" transform="translate(-27.386 -17.475)" fill="#fff"/>
          <path id="Path_121" data-name="Path 121" d="M110.315,28.579c-.279,1.831-2.062,3.087-4.343,3.087-2.934,0-4.755-1.966-4.755-5.12s1.831-5.215,4.668-5.215c2.79,0,4.545,1.917,4.545,4.975v.709h-7.124v.125A2.627,2.627,0,0,0,106.02,30a2.282,2.282,0,0,0,2.329-1.419Zm-7-3.01h5.042a2.426,2.426,0,0,0-2.474-2.56,2.553,2.553,0,0,0-2.569,2.56Z" transform="translate(-26.812 -17.477)" fill="#fff"/>
        </g>
      </g>
    </g>
    <g id="_Group_4" data-name="&lt;Group&gt;" transform="translate(39.738 9.4)">
      <g id="Group_1159" data-name="Group 1159">
        <path id="Path_122" data-name="Path 122" d="M38.072,8.732a2.941,2.941,0,0,1,3.128,3.3c0,2.124-1.148,3.344-3.128,3.344h-2.4V8.732ZM36.7,14.439h1.253a2.09,2.09,0,0,0,2.192-2.391,2.1,2.1,0,0,0-2.192-2.377H36.7Z" transform="translate(-35.671 -8.404)" fill="#fff"/>
        <path id="Path_123" data-name="Path 123" d="M41.682,12.711a2.376,2.376,0,1,1,4.731,0,2.377,2.377,0,1,1-4.731,0Zm3.713,0c0-1.087-.488-1.723-1.346-1.723s-1.345.636-1.345,1.723.484,1.727,1.345,1.727,1.346-.635,1.346-1.727Z" transform="translate(-34.987 -8.246)" fill="#fff"/>
        <path id="Path_124" data-name="Path 124" d="M52.144,15.211H51.117L50.08,11.517H50l-1.032,3.695H47.952l-1.383-5.016h1l.9,3.828h.074l1.031-3.828h.95l1.031,3.828h.078l.894-3.828h.99Z" transform="translate(-34.428 -8.237)" fill="#fff"/>
        <path id="Path_125" data-name="Path 125" d="M53.854,10.205h.953V11h.074a1.5,1.5,0,0,1,1.5-.894,1.632,1.632,0,0,1,1.736,1.866v3.247h-.99v-3c0-.806-.35-1.207-1.082-1.207a1.151,1.151,0,0,0-1.2,1.271v2.935h-.99Z" transform="translate(-33.598 -8.247)" fill="#fff"/>
        <path id="Path_126" data-name="Path 126" d="M59.094,8.437h.99v6.975h-.99Z" transform="translate(-33 -8.437)" fill="#fff"/>
        <path id="Path_127" data-name="Path 127" d="M61.219,12.711a2.377,2.377,0,1,1,4.732,0,2.377,2.377,0,1,1-4.732,0Zm3.713,0c0-1.087-.488-1.723-1.346-1.723s-1.345.636-1.345,1.723.484,1.727,1.345,1.727,1.346-.635,1.346-1.727Z" transform="translate(-32.759 -8.247)" fill="#fff"/>
        <path id="Path_128" data-name="Path 128" d="M66.4,13.8c0-.9.672-1.424,1.866-1.5l1.359-.078v-.433c0-.53-.35-.829-1.027-.829-.553,0-.936.2-1.045.558h-.958c.1-.862.912-1.414,2.05-1.414,1.258,0,1.967.626,1.967,1.686v3.427h-.953v-.7H69.58a1.688,1.688,0,0,1-1.507.788A1.515,1.515,0,0,1,66.4,13.8Zm3.225-.429v-.419l-1.225.078c-.691.046-1,.281-1,.723s.392.714.93.714a1.183,1.183,0,0,0,1.3-1.1Z" transform="translate(-32.167 -8.246)" fill="#fff"/>
        <path id="Path_129" data-name="Path 129" d="M71.348,12.9c0-1.585.815-2.589,2.082-2.589a1.653,1.653,0,0,1,1.538.88h.074V8.437h.99v6.975h-.949v-.793h-.078a1.741,1.741,0,0,1-1.575.875C72.154,15.494,71.348,14.49,71.348,12.9Zm1.023,0c0,1.064.5,1.7,1.34,1.7s1.35-.649,1.35-1.7-.521-1.7-1.35-1.7-1.34.645-1.34,1.7Z" transform="translate(-31.603 -8.437)" fill="#fff"/>
        <path id="Path_130" data-name="Path 130" d="M79.231,12.711a2.376,2.376,0,1,1,4.731,0,2.377,2.377,0,1,1-4.731,0Zm3.713,0c0-1.087-.488-1.723-1.346-1.723s-1.345.636-1.345,1.723.484,1.727,1.345,1.727S82.944,13.8,82.944,12.711Z" transform="translate(-30.706 -8.246)" fill="#fff"/>
        <path id="Path_131" data-name="Path 131" d="M84.669,10.205h.953V11H85.7a1.5,1.5,0,0,1,1.5-.894,1.632,1.632,0,0,1,1.736,1.866v3.247h-.99v-3c0-.806-.35-1.207-1.082-1.207a1.151,1.151,0,0,0-1.2,1.271v2.935h-.99Z" transform="translate(-30.084 -8.247)" fill="#fff"/>
        <path id="Path_132" data-name="Path 132" d="M93.7,9.074v1.272h1.087v.834H93.7v2.579c0,.525.216.756.709.756a3.3,3.3,0,0,0,.377-.023v.825a3.248,3.248,0,0,1-.539.051c-1.1,0-1.539-.387-1.539-1.354V11.179h-.8v-.834h.8V9.074Z" transform="translate(-29.259 -8.364)" fill="#fff"/>
        <path id="Path_133" data-name="Path 133" d="M95.7,8.437h.981V11.2h.078a1.544,1.544,0,0,1,1.53-.9,1.652,1.652,0,0,1,1.728,1.87v3.239H99.03V12.417c0-.8-.373-1.207-1.073-1.207a1.172,1.172,0,0,0-1.263,1.272v2.93H95.7Z" transform="translate(-28.826 -8.437)" fill="#fff"/>
        <path id="Path_134" data-name="Path 134" d="M105.223,13.867a2.036,2.036,0,0,1-2.174,1.451,2.279,2.279,0,0,1-2.317-2.589,2.314,2.314,0,0,1,2.313-2.621c1.4,0,2.238.954,2.238,2.529v.345h-3.542v.055a1.326,1.326,0,0,0,1.336,1.437,1.2,1.2,0,0,0,1.193-.608Zm-3.482-1.617h2.534a1.21,1.21,0,0,0-1.235-1.3,1.283,1.283,0,0,0-1.3,1.3Z" transform="translate(-28.255 -8.247)" fill="#fff"/>
      </g>
    </g>
  </g>
</svg>
