<svg xmlns="http://www.w3.org/2000/svg" width="90" height="95.725" viewBox="0 0 90 95.725">
  <g id="Group_1180" data-name="Group 1180" transform="translate(-60 -459.237)">
    <circle id="Ellipse_31" data-name="Ellipse 31" cx="45" cy="45" r="45" transform="translate(60 459.237)" fill="#dcc3f2"/>
    <g id="hammer" transform="translate(63 467.962)">
      <path id="Path_96" data-name="Path 96" d="M84.789,70.894,45.936,23a2.541,2.541,0,0,0-.216-2.894L42.548,16.2c5.8-4.323,9.779-5.466,18.494-5.779a2.551,2.551,0,0,0,1.2-4.745c-13.283-7.8-25.728-7.558-35.99.7L15.423,15.092a2.549,2.549,0,0,0-.379,3.593,2.514,2.514,0,0,1-.388,3.56,2.562,2.562,0,0,1-3.592-.381,2.549,2.549,0,0,0-3.578-.384L2.849,25.208A7.616,7.616,0,0,0,1.7,35.948l6.413,7.91A7.674,7.674,0,0,0,18.869,45l4.636-3.727a2.549,2.549,0,0,0,.383-3.591,2.522,2.522,0,0,1,.381-3.56,2.567,2.567,0,0,1,3.6.38,2.548,2.548,0,0,0,2.821.8l38.739,48.02A9.879,9.879,0,1,0,84.789,70.894ZM34.753,32.221l7.318-5.89,5.551,6.842-7.341,5.9ZM18.269,35.287a7.587,7.587,0,0,0,.388,3.343l-2.983,2.4a2.568,2.568,0,0,1-3.6-.38l-6.413-7.91a2.522,2.522,0,0,1,.38-3.559l2.995-2.407a7.651,7.651,0,0,0,11.235-9.041l9.174-7.384C35.934,5.127,43.321,3.8,51.484,6.357,46.37,7.491,42.438,9.689,37.332,13.8a2.549,2.549,0,0,0-.382,3.59l3.2,3.946-10.26,8.258a7.66,7.66,0,0,0-11.62,5.695Zm61.855,45.55a4.78,4.78,0,0,1-6.729-.717L43.481,43.04l7.352-5.909,30,36.974a4.78,4.78,0,0,1-.706,6.732Z" transform="translate(0 0.001)" fill="#746d7f"/>
    </g>
  </g>
</svg>
