<svg id="Group_1184" data-name="Group 1184" xmlns="http://www.w3.org/2000/svg" width="90" height="95.725" viewBox="0 0 130.323 130.323">
  <g id="Group_1179" data-name="Group 1179" transform="translate(0)">
    <circle id="Ellipse_32" data-name="Ellipse 32" cx="65.161" cy="65.161" r="65.161" fill="#dcc3f2"/>
    <g id="graph" transform="translate(24.365 0.001)">
      <g id="Group_1188" data-name="Group 1188">
        <path id="Path_137" data-name="Path 137" d="M95.362,25.6a10.575,10.575,0,0,0-7.615,17.932L68.389,82.242a10.252,10.252,0,0,0-1.282-.131,10.551,10.551,0,0,0-3.987.791L48.091,66a10.47,10.47,0,0,0,1.356-5.082,10.6,10.6,0,1,0-18.592,6.873L12.489,99.961A10.629,10.629,0,0,0,10.6,99.77a10.724,10.724,0,1,0,8,3.723L36.958,71.324a10.075,10.075,0,0,0,5.867-.6l15.028,16.9a10.467,10.467,0,0,0-1.342,5.082,10.6,10.6,0,1,0,18.21-7.336L94.08,46.661a10.247,10.247,0,0,0,1.282.131,10.6,10.6,0,1,0,0-21.192ZM10.6,113.9a3.532,3.532,0,1,1,3.532-3.532A3.532,3.532,0,0,1,10.6,113.9ZM38.851,64.451a3.532,3.532,0,1,1,3.532-3.532A3.532,3.532,0,0,1,38.851,64.451ZM67.107,96.238a3.532,3.532,0,1,1,3.532-3.532A3.532,3.532,0,0,1,67.107,96.238ZM95.362,39.728A3.532,3.532,0,1,1,98.894,36.2,3.532,3.532,0,0,1,95.362,39.728Z" transform="translate(0 -25.6)" fill="#746d7f"/>
      </g>
    </g>
  </g>
</svg>
