<svg xmlns="http://www.w3.org/2000/svg" width="225.558" height="205.063" viewBox="0 0 225.558 205.063">
  <g id="Group_1087" data-name="Group 1087" transform="translate(-75 -324.999)">
    <circle id="Ellipse_32" data-name="Ellipse 32" cx="102.5" cy="102.5" r="102.5" transform="translate(75 325.063)" fill="#dcc3f2"/>
    <g id="XMLID_2188_" transform="translate(113.27 324.998)">
      <g id="XMLID_351_" transform="translate(25.993 0.001)">
        <path id="XMLID_379_" d="M186.628,58.225A50.9,50.9,0,0,0,132.154,38.7L164.245,6.6a3.507,3.507,0,0,0-1.915-5.94A50.928,50.928,0,0,0,106.6,32.451,50.928,50.928,0,0,0,50.861.665,3.507,3.507,0,0,0,48.946,6.6l32.06,32.06a50.9,50.9,0,0,0-54.354,19.56A3.506,3.506,0,0,0,29.5,63.779H71.576a50.9,50.9,0,0,0-24.543,52.23,3.507,3.507,0,0,0,5.94,1.915l40.3-40.3v69.183a79.809,79.809,0,0,0-47.449,26.935,3.507,3.507,0,0,0,2.667,5.783H90.862a3.506,3.506,0,1,0,0-7.013h-34.2a72.834,72.834,0,0,1,99.868,0H122.42a3.506,3.506,0,1,0,0,7.013H164.7a3.506,3.506,0,0,0,2.667-5.783,79.811,79.811,0,0,0-47.449-26.935V77.535l40.388,40.388a3.506,3.506,0,0,0,5.94-1.915A50.9,50.9,0,0,0,141.7,63.779h42.077a3.506,3.506,0,0,0,2.846-5.554ZM122.981,19.888A44.119,44.119,0,0,1,153.918,7.014L110.107,50.825A44.12,44.12,0,0,1,122.981,19.888Zm-32.771,0a44.118,44.118,0,0,1,12.874,30.937L59.273,7.014A44.125,44.125,0,0,1,90.21,19.888ZM68.07,43.993A44.118,44.118,0,0,1,99.049,56.766H37.091A44.118,44.118,0,0,1,68.07,43.993ZM66.256,76.659A44.118,44.118,0,0,1,97.193,63.785L53.382,107.6A44.119,44.119,0,0,1,66.256,76.659Zm34.029,32h12.623V124.09H100.285Zm12.623-7.013H100.285V86.221h12.623ZM106.6,145.688q-3.174,0-6.312.251V131.1h12.623v14.836Q109.771,145.692,106.6,145.688Zm6.312-66.48H100.285v-8.6l6.356-6.356,6.267,6.267ZM159.9,107.6,116.088,63.785A43.954,43.954,0,0,1,159.9,107.6Zm-45.666-50.83a43.954,43.954,0,0,1,61.958,0Z" transform="translate(-25.993 -0.001)" fill="#746d7f"/>
        <path id="XMLID_1071_" d="M249.368,491.985a3.508,3.508,0,1,0,2.479,1.027A3.533,3.533,0,0,0,249.368,491.985Z" transform="translate(-168.766 -319.474)" fill="#746d7f"/>
      </g>
    </g>
  </g>
</svg>
