<svg id="play-store" xmlns="http://www.w3.org/2000/svg" xmlns:xlink="http://www.w3.org/1999/xlink" width="151.011" height="44.561" viewBox="0 0 151.011 44.561">
  <defs>
    <linearGradient id="linear-gradient" x1="2.472" y1="1.035" x2="2.361" y2="1.005" gradientUnits="objectBoundingBox">
      <stop offset="0" stop-color="#00a0ff"/>
      <stop offset="0.007" stop-color="#00a1ff"/>
      <stop offset="0.26" stop-color="#00beff"/>
      <stop offset="0.512" stop-color="#00d2ff"/>
      <stop offset="0.76" stop-color="#00dfff"/>
      <stop offset="1" stop-color="#00e3ff"/>
    </linearGradient>
    <linearGradient id="linear-gradient-2" x1="1.95" y1="1.879" x2="1.69" y2="1.879" gradientUnits="objectBoundingBox">
      <stop offset="0" stop-color="#ffe000"/>
      <stop offset="0.409" stop-color="#ffbd00"/>
      <stop offset="0.775" stop-color="orange"/>
      <stop offset="1" stop-color="#ff9c00"/>
    </linearGradient>
    <linearGradient id="linear-gradient-3" x1="1.926" y1="0.946" x2="1.835" y2="0.793" gradientUnits="objectBoundingBox">
      <stop offset="0" stop-color="#ff3a44"/>
      <stop offset="1" stop-color="#c31162"/>
    </linearGradient>
    <linearGradient id="linear-gradient-4" x1="1.856" y1="2.093" x2="1.897" y2="2.025" gradientUnits="objectBoundingBox">
      <stop offset="0" stop-color="#32a071"/>
      <stop offset="0.068" stop-color="#2da771"/>
      <stop offset="0.476" stop-color="#15cf74"/>
      <stop offset="0.801" stop-color="#06e775"/>
      <stop offset="1" stop-color="#00f076"/>
    </linearGradient>
  </defs>
  <path id="Path_144" data-name="Path 144" d="M145.416,44.561H5.6A5.6,5.6,0,0,1,0,38.99V5.57A5.591,5.591,0,0,1,5.6,0H145.416a5.593,5.593,0,0,1,5.6,5.57V38.99A5.6,5.6,0,0,1,145.416,44.561Z" fill-rule="evenodd"/>
  <path id="Path_145" data-name="Path 145" d="M145.416.892a4.7,4.7,0,0,1,4.7,4.678V38.99a4.7,4.7,0,0,1-4.7,4.678H5.6a4.7,4.7,0,0,1-4.7-4.678V5.57A4.7,4.7,0,0,1,5.6.892Zm0-.892H5.6A5.6,5.6,0,0,0,0,5.57V38.99a5.591,5.591,0,0,0,5.6,5.57H145.416a5.593,5.593,0,0,0,5.6-5.57V5.57A5.6,5.6,0,0,0,145.416,0Z" fill="#a6a6a6" fill-rule="evenodd"/>
  <path id="Path_146" data-name="Path 146" d="M1687.9,278.5a3.391,3.391,0,0,1-2.531-1.047,3.567,3.567,0,0,1-1.022-2.556,3.488,3.488,0,0,1,1.022-2.553,3.381,3.381,0,0,1,2.528-1.047,3.426,3.426,0,0,1,2.531,1.047,3.7,3.7,0,0,1,0,5.106A3.362,3.362,0,0,1,1687.9,278.5Zm-30.006,0a3.515,3.515,0,0,1-2.542-1.033,3.6,3.6,0,0,1,2.542-6.167,3.543,3.543,0,0,1,1.42.294,2.871,2.871,0,0,1,1.081.772l.067.081-.753.739-.078-.092a2.14,2.14,0,0,0-1.747-.753,2.416,2.416,0,0,0-1.742.711,2.7,2.7,0,0,0,0,3.7,2.547,2.547,0,0,0,3.531,0,1.924,1.924,0,0,0,.511-1.158h-2.414v-1.039h3.45l.014.094a3.809,3.809,0,0,1,.05.522,3.127,3.127,0,0,1-.861,2.306A3.361,3.361,0,0,1,1657.89,278.5Zm39.9-.147h-1.064l-3.259-5.215.028.939v4.273h-1.064v-6.9h1.214l.033.053,3.064,4.912-.028-.936V271.45h1.075Zm-17.885,0h-1.078v-5.867h-1.87V271.45h4.814v1.039h-1.87v5.867Zm-3.825,0H1675V271.45h1.075Zm-6.042,0h-1.075v-5.867h-1.87V271.45h4.815v1.039h-1.87Zm-3.625-.011h-4.123v-6.9h4.123v1.039h-3.045v1.895h2.747v1.028h-2.747v1.895h3.045Zm19.747-1.6a2.379,2.379,0,0,0,1.742.722,2.318,2.318,0,0,0,1.742-.722,2.737,2.737,0,0,0,0-3.678,2.383,2.383,0,0,0-1.742-.722,2.308,2.308,0,0,0-1.739.722,2.741,2.741,0,0,0-.006,3.678Z" transform="translate(-1608.342 -263.763)" fill="#fff"/>
  <path id="Path_147" data-name="Path 147" d="M1676.853,688.262a4.739,4.739,0,1,0,4.753,4.739A4.665,4.665,0,0,0,1676.853,688.262Zm0,7.6a2.88,2.88,0,1,1,2.672-2.873A2.742,2.742,0,0,1,1676.853,695.863Zm-10.371-7.6a4.739,4.739,0,1,0,4.753,4.739A4.665,4.665,0,0,0,1666.483,688.262Zm0,7.6a2.88,2.88,0,1,1,2.673-2.873A2.743,2.743,0,0,1,1666.483,695.863Zm-12.34-6.154v2.006h4.814a4.23,4.23,0,0,1-1.089,2.525,4.914,4.914,0,0,1-3.714,1.472,5.348,5.348,0,0,1,0-10.7,5.139,5.139,0,0,1,3.625,1.436l1.422-1.422a6.994,6.994,0,0,0-5.037-2.031,7.354,7.354,0,1,0,0,14.707,6.732,6.732,0,0,0,5.137-2.067,6.656,6.656,0,0,0,1.745-4.7,6.216,6.216,0,0,0-.111-1.25h-6.8S1654.142,689.709,1654.142,689.709Zm50.475,1.561a4.4,4.4,0,0,0-4.059-3.02,4.5,4.5,0,0,0-4.467,4.739,4.632,4.632,0,0,0,4.7,4.739,4.7,4.7,0,0,0,3.948-2.1l-1.609-1.078a2.7,2.7,0,0,1-2.328,1.311,2.42,2.42,0,0,1-2.3-1.436l6.337-2.625S1704.618,691.27,1704.618,691.27Zm-6.462,1.583a2.6,2.6,0,0,1,2.475-2.761,1.827,1.827,0,0,1,1.759,1Zm-5.148,4.592h2.081V683.522h-2.081Zm-3.417-8.132h-.075a3.283,3.283,0,0,0-2.5-1.064,4.739,4.739,0,0,0,0,9.471,3.273,3.273,0,0,0,2.5-1.078h.075v.681c0,1.809-.967,2.784-2.525,2.784a2.628,2.628,0,0,1-2.389-1.684l-1.808.756a4.524,4.524,0,0,0,4.195,2.8c2.439,0,4.506-1.436,4.506-4.939v-8.5H1689.6v.781Zm-2.389,6.548a2.882,2.882,0,0,1,0-5.742,2.664,2.664,0,0,1,2.525,2.884A2.631,2.631,0,0,1,1687.2,695.863Zm27.158-12.34h-4.975v13.924h2.081v-5.273h2.9a4.332,4.332,0,1,0,0-8.651Zm.061,6.706h-2.959V685.45h2.959a2.39,2.39,0,1,1,0,4.778Zm12.849-1.992a3.918,3.918,0,0,0-3.714,2.128l1.845.767a1.979,1.979,0,0,1,1.895-1.028,2.009,2.009,0,0,1,2.192,1.794v.147a4.659,4.659,0,0,0-2.167-.533c-1.992,0-4.012,1.089-4.012,3.131a3.218,3.218,0,0,0,3.453,3.07,2.929,2.929,0,0,0,2.648-1.361h.075v1.078h2.005V692.1C1731.49,689.612,1729.645,688.237,1727.27,688.237Zm-.261,7.626c-.681,0-1.633-.333-1.633-1.189,0-1.078,1.189-1.486,2.2-1.486a3.612,3.612,0,0,1,1.895.469A2.5,2.5,0,0,1,1727.009,695.863Zm11.8-7.329-2.389,6.04h-.075l-2.475-6.04h-2.239l3.714,8.443-2.117,4.692h2.167l5.715-13.135Zm-18.73,8.912h2.081V683.522h-2.081Z" transform="translate(-1600.953 -664.026)" fill="#fff" fill-rule="evenodd"/>
  <path id="Path_148" data-name="Path 148" d="M400.608,299.475a2.257,2.257,0,0,0-.508,1.572v24.633a2.148,2.148,0,0,0,.52,1.558l.086.075,13.8-13.8V313.2l-13.813-13.8Z" transform="translate(-388.985 -291.082)" fill-rule="evenodd" fill="url(#linear-gradient)"/>
  <path id="Path_149" data-name="Path 149" d="M922.9,640.029l-4.6-4.6V635.1l4.6-4.6.1.061,5.445,3.095c1.558.878,1.558,2.328,0,3.217L923,639.968Z" transform="translate(-892.789 -612.984)" fill-rule="evenodd" fill="url(#linear-gradient-2)"/>
  <path id="Path_150" data-name="Path 150" d="M436.991,806.7l-4.7-4.7L418.4,815.888a1.823,1.823,0,0,0,2.314.075l16.277-9.259" transform="translate(-406.777 -779.72)" fill-rule="evenodd" fill="url(#linear-gradient-3)"/>
  <path id="Path_151" data-name="Path 151" d="M436.991,296.1l-16.277-9.245a1.8,1.8,0,0,0-2.314.075L432.288,300.8Z" transform="translate(-406.777 -278.522)" fill-rule="evenodd" fill="url(#linear-gradient-4)"/>
  <path id="Path_152" data-name="Path 152" d="M437.28,967.7l-16.166,9.184a1.834,1.834,0,0,1-2.228.011l-.086.086.086.075a1.839,1.839,0,0,0,2.228-.011l16.277-9.245Z" transform="translate(-407.165 -940.816)" fill-rule="evenodd" opacity="0.2"/>
  <path id="Path_153" data-name="Path 153" d="M1089.059,803.447,1083.5,806.6l.1.1,5.445-3.095a1.951,1.951,0,0,0,1.164-1.609A2,2,0,0,1,1089.059,803.447Z" transform="translate(-1053.399 -779.72)" fill-rule="evenodd" opacity="0.12"/>
  <path id="Path_154" data-name="Path 154" d="M402.923,286.845l21.722,12.34a2.047,2.047,0,0,1,1.164,1.447,1.951,1.951,0,0,0-1.164-1.609l-21.722-12.34c-1.559-.892-2.823-.147-2.823,1.634v.161C400.1,286.695,401.364,285.964,402.923,286.845Z" transform="translate(-388.985 -278.352)" fill="#fff" fill-rule="evenodd" opacity="0.25"/>
</svg>
